HIERARCHY
ROOT hip
{
  OFFSET 0.0 0.0 0.0
  CHANNELS 6 Xposition Yposition Zposition Zrotation Yrotation Xrotation
  JOINT torso
  {
    OFFSET 0.0 0.0 0.0
    CHANNELS 3 Zrotation Xrotation Yrotation
    JOINT neck
    {
      OFFSET -8.600829999999974 327.7417449999999 60.895874000000276
      CHANNELS 3 Zrotation Xrotation Yrotation
      JOINT head
      {
        OFFSET 0.7211610000001087 266.848846 239.12060599999995
        CHANNELS 3 Zrotation Xrotation Yrotation
        End Site
        {
          OFFSET 0.0 0.0 0.0
        }
      }
    }
    JOINT left_collar
    {
      OFFSET -8.600829999999974 327.7417449999999 60.895874000000276
      CHANNELS 3 Zrotation Xrotation Yrotation
      JOINT left_upper_arm
      {
        OFFSET -122.29599000000002 -5.21875 31.800903999999946
        CHANNELS 3 Zrotation Xrotation Yrotation
        JOINT left_forearm
        {
          OFFSET -195.94708199999997 63.423126000000025 226.99352999999996
          CHANNELS 3 Zrotation Xrotation Yrotation
          JOINT left_hand
          {
            OFFSET -232.19226099999992 28.282164999999964 80.86950699999989
            CHANNELS 3 Zrotation Xrotation Yrotation
            End Site
            {
              OFFSET 0.0 0.0 0.0
            }
          }
        }
      }
    }
    JOINT right_collar
    {
      OFFSET -8.600829999999974 327.7417449999999 60.895874000000276
      CHANNELS 3 Zrotation Xrotation Yrotation
      JOINT right_upper_arm
      {
        OFFSET 168.41261300000002 -11.913361000000066 -9.389160000000174
        CHANNELS 3 Zrotation Xrotation Yrotation
        JOINT right_forearm
        {
          OFFSET 213.49279800000005 104.82293699999997 83.52258300000017
          CHANNELS 3 Zrotation Xrotation Yrotation
          JOINT right_hand
          {
            OFFSET 222.067185 62.005675999999994 -110.52026300000034
            CHANNELS 3 Zrotation Xrotation Yrotation
            End Site
            {
              OFFSET 0.0 0.0 0.0
            }
          }
        }
      }
    }
  }
}
MOTION
Frames: 14
Frame Time: 0.01
-380.80203351797024 111.48774832771268 1511.6694966973364 7.287625489911101 -22.88519733783986 -17.77991535818268 -2.243265091387922 8.594380656072508 0.48070427312467295 -4.809452131540118 -4.121252807842047 4.354459355807226 0.0 0.0 0.0 0.10349779769728795 -0.11326804976965223 3.2350328313853884 56.24672928208787 42.131129216849516 28.579985398860828 39.65133877070324 13.796894640961629 -0.2984602684300326 0.0 0.0 0.0 -4.651577906630901 0.09668418941821286 3.1964407110663946 -76.25558325844963 19.97234077263946 -19.742846083349743 -37.43392079249969 -18.80746497857515 -10.189250391575323 0.0 0.0 0.0
-381.0054541533381 111.48054255076778 1511.5028256219625 7.2887571420848785 -22.883509869443827 -17.763011736883985 -2.2369507745333816 8.610224740399511 0.4801175217571231 -4.783537045557656 -4.122145353818968 4.3310557504987015 0.0 0.0 0.0 0.09175060216156551 -0.1137888687348324 3.184215882597284 56.261953290236185 42.10312265457856 28.669267551213288 39.6390885217615 13.786590732005472 -0.2761916551381509 0.0 0.0 0.0 -4.667031607649873 0.09161530010223559 3.1549093820179324 -76.20694892657394 19.963222120292215 -19.751928237382895 -37.495434003443336 -18.835761778127452 -10.143802940386099 0.0 0.0 0.0
-381.2138068043263 111.47247709605507 1511.33374139449 7.290127164130687 -22.881635855495972 -17.745650691871578 -2.23061064956197 8.625913813976645 0.4795284432401812 -4.758452788885251 -4.121928108689554 4.308391444961133 0.0 0.0 0.0 0.08014841273038253 -0.11431635951222817 3.1340909392641936 56.276715415066704 42.075075713782745 28.757988955082265 39.62845424794712 13.776916984696335 -0.25409142745249064 0.0 0.0 0.0 -4.682454572095319 0.086598973338244 3.1139427410235396 -76.15830315035552 19.95419428715289 -19.760674688749727 -37.554820350230216 -18.86301563711029 -10.09986901023051 0.0 0.0 0.0
-381.42716720320266 111.46370924010051 1511.1564540046807 7.291736428752839 -22.87924533759656 -17.728133770787036 -2.2242790531852776 8.641479232981704 0.4789411006528218 -4.734679536837915 -4.120372175272245 4.28689803749963 0.0 0.0 0.0 0.0689146172083032 -0.11482984861728382 3.085393283570835 56.29079704033178 42.04713017322021 28.845497414964502 39.619837230748644 13.76799001780977 -0.23206165330330458 0.0 0.0 0.0 -4.697643383464675 0.08171075428616385 3.0741605696263505 -76.10985627640386 19.945195644752847 -19.76945132926951 -37.61143512664074 -18.888926729192743 -10.057845233667965 0.0 0.0 0.0
-381.6453852077308 111.45440281815168 1510.964661758533 7.293590089118726 -22.87597883640867 -17.71081621707088 -2.2179894186064337 8.656961195258782 0.4783595136670446 -4.712700085542882 -4.1172713634627165 4.267009732906486 0.0 0.0 0.0 0.05825817353685942 -0.11531033406590695 3.0388343820172787 56.30398360508856 42.01941123661036 28.931187162780628 39.61362315238226 13.75992189998184 -0.21000942087956612 0.0 0.0 0.0 -4.712409270559164 0.07702493537315162 3.036169809621967 -76.06183583971348 19.93618151840233 -19.778567534497096 -37.664621830307745 -18.9131927253654 -10.018144851151838 0.0 0.0 0.0
-381.8680315849812 111.4447246574086 1510.7516789751364 7.295697773882148 -22.871454821460357 -17.694103868105024 -2.2117745065523966 8.672406625905305 0.4777876709385084 -4.692988409128897 -4.112450693111162 4.249153071040573 0.0 0.0 0.0 0.04836676956822235 -0.1157413833368967 2.995083180631078 56.316070183528495 41.99202610600204 29.014510203726466 39.610169232727365 13.752817219041573 -0.18785313008359922 0.0 0.0 0.0 -4.726584358100188 0.07261249162069651 3.0005484980555104 -76.01448667015183 19.92712856856747 -19.788257940297296 -37.71372408359067 -18.935514214394285 -9.981190389046096 0.0 0.0 0.0
-382.0943555664877 111.43484234794873 1510.510567718307 7.298073111298653 -22.8652781589151 -17.678447467879245 -2.2056669262427437 8.68786725239534 0.4772295750819794 -4.675997488059427 -4.1057742147347485 4.233735987892034 0.0 0.0 0.0 0.03940068400685168 -0.11610993334010833 2.954747923860425 56.32686741467418 41.96506327990045 29.09498635574132 39.60979123634725 13.746769806535317 -0.16552761236321106 0.0 0.0 0.0 -4.7400264215513355 0.06853911680750657 2.9678305388437254 -75.96807019372673 19.918037413203653 -19.798670670673335 -37.75810068164027 -18.955601298506725 -9.947403070420195 0.0 0.0 0.0
-382.3232562307166 111.42492340391298 1510.2342690577766 7.300732551526771 -22.857049337521417 -17.664334238266985 -2.199699960056891 8.703397950274248 0.47668932217805116 -4.66214668226135 -4.097151802549471 4.221136455276077 0.0 0.0 0.0 0.031487621662465354 -0.11640693449417014 2.9183589952932496 56.336207543405656 41.93859256789067 29.172211667428687 39.612750845696 13.741859236755728 -0.14298784094218067 0.0 0.0 0.0 -4.752621938399266 0.06486342372546759 2.938491698229098 -75.92286268239957 19.908933303588093 -19.809862740527095 -37.79714358391647 -18.973181266609167 -9.917189013582096 0.0 0.0 0.0
-382.55327023533965 111.41513567117613 1509.9157296024307 7.303693527012909 -22.84637424114569 -17.652276655315134 -2.1939086992314323 8.719055404247477 0.4761712167837594 -4.651808977696297 -4.086544582027969 4.211690995379488 0.0 0.0 0.0 0.02471876658858871 -0.11662778459414055 2.886353261787873 56.343950304294104 41.91266579041396 29.245864918332494 39.61924392080925 13.738147259610905 -0.12021111628617198 0.0 0.0 0.0 -4.764287387693068 0.06163535390203508 2.9129370839813222 -75.87915215183091 19.8998648163194 -19.82180273036758 -37.83029840666846 -18.98800715170627 -9.890922510159447 0.0 0.0 0.0
-382.78257771677727 111.40564864956528 1509.5480194474123 7.30697205686651 -22.832874223071606 -17.642798474509863 -2.1883314835684944 8.734897100000524 0.4756799215895625 -4.64529847872573 -4.073968668833416 4.205683406035698 0.0 0.0 0.0 0.019146239857439847 -0.11677250855722286 2.8590603479143186 56.34998838426834 41.887318116783625 29.315711954306778 39.62939015570087 13.735674354544983 -0.09719773837462693 0.0 0.0 0.0 -4.774968897027356 0.05889482323799273 2.8914902467878716 -75.83723361624429 19.890900664297643 -19.83438026600814 -37.8570867142928 -18.999866885586325 -9.868926908951105 0.0 0.0 0.0
-383.00902730181343 111.39663523368353 1509.1244382423872 7.310579954992081 -22.816196240265768 -17.6364181521879 -2.183011612759149 8.750980636688688 0.47522063782881674 -4.642858552113532 -4.0594969202438485 4.203334062785166 0.0 0.0 0.0 0.014782072030052478 -0.11684565674045738 2.8366911975102256 56.35425223034887 41.86256998840983 29.38160767110077 39.643224604729326 13.734456606199611 -0.07397028833873302 0.0 0.0 0.0 -4.784640462646809 0.05667061314843526 2.874383948106883 -75.79740248607602 19.882124852670756 -19.84742136508872 -37.87712916209381 -19.00859267639146 -9.851453851781395 0.0 0.0 0.0
-383.2301801597578 111.38827324825797 1508.6386068267498 7.3145218433721855 -22.796022820451103 -17.63362993620167 -2.1779992655308624 8.767363326020398 0.47479930885650795 -4.644651053737189 -4.043258439058333 4.204790186281173 0.0 0.0 0.0 0.011598710180391153 -0.11685591638365346 2.819329211529447 56.35671402102577 41.83842957415619 29.443495533866336 39.66069149860908 13.7344831032568 -0.05057172814245053 0.0 0.0 0.0 -4.793301065511996 0.05497950522645742 2.8617525927052205 -75.75994603278092 19.87363050822128 -19.860708347822506 -37.89016832365746 -19.014070156291083 -9.838661809872743 0.0 0.0 0.0
-383.4433719260904 111.38074606953654 1508.0845427532204 7.318792202033875 -22.772081655303833 -17.634883045131804 -2.1733535344013366 8.78410202039462 0.4744228359738338 -4.650747079935072 -4.025435629630639 4.210117473005304 0.0 0.0 0.0 0.00953098292121972 -0.11681545577447222 2.806924189640034 56.357390676872896 41.81489570567909 29.50140459661033 39.681640715674206 13.73571405659583 -0.027062589976551015 0.0 0.0 0.0 -4.800971066087852 0.05382565176391589 2.8536263230542147 -75.72513303800807 19.865512790850747 -19.874002756477573 -37.896089854926494 -19.01624678109631 -9.83059505937168 0.0 0.0 0.0
-383.6457902533983 111.37424159115486 1507.4567189367654 7.323372703875828 -22.744154631798956 -17.64055949803697 -2.1691444660506565 8.80125309116156 0.4740992934510978 -4.661119668882918 -4.0062586915640646 4.2192934719388315 0.0 0.0 0.0 0.008479353630560989 -0.1167390456617721 2.7992892378653518 56.356345819597685 41.791961235271906 29.555444041776884 39.70582723559872 13.73807982914003 -0.0035175724429209253 0.0 0.0 0.0 -4.807688277175785 0.053200172231174535 2.8499267880329517 -75.69320197397269 19.857861352748465 -19.887069584860182 -37.89494052404827 -19.01513891899807 -9.827164411917988 0.0 0.0 0.0
